<svg width="32" height="32" viewBox="0 0 32 32" fill="none" xmlns="http://www.w3.org/2000/svg">
<g clip-path="url(#clip0_1_4)">
<path d="M25.3333 5.33332H24V2.66665H21.3333V5.33332H10.6667V2.66665H8V5.33332H6.66667C5.18667 5.33332 4.01333 6.53332 4.01333 7.99999L4 26.6667C4 28.1333 5.18667 29.3333 6.66667 29.3333H25.3333C26.8 29.3333 28 28.1333 28 26.6667V7.99999C28 6.53332 26.8 5.33332 25.3333 5.33332ZM25.3333 26.6667H6.66667V13.3333H25.3333V26.6667ZM25.3333 10.6667H6.66667V7.99999H25.3333V10.6667ZM16 17.3333H22.6667V24H16V17.3333Z" fill="#343A40"/>
</g>
<defs>
<clipPath id="clip0_1_4">
<rect width="32" height="32" fill="white"/>
</clipPath>
</defs>
</svg>
